/* XPM */
static char * frog16_xpm[] = {
"16 16 56 1",
" 	c None",
".	c #000000",
"+	c #353535",
"@	c #C2C2C2",
"#	c #757575",
"$	c #DFDFDF",
"%	c #FFFFFF",
"&	c #F2F2F2",
"*	c #E5E5E5",
"=	c #656565",
"-	c #AFAFAF",
";	c #494949",
">	c #BDBDBD",
",	c #F0F0F0",
"'	c #929292",
")	c #EEEEEE",
"!	c #D6D6D6",
"~	c #838383",
"{	c #FDFDFD",
"]	c #B5B5B5",
"^	c #D8D8D8",
"/	c #BCBCBC",
"(	c #A7A7A7",
"_	c #DDDDDD",
":	c #C0C0C0",
"<	c #CBCBCB",
"[	c #E2E2E2",
"}	c #EBEBEB",
"|	c #F6F6F6",
"1	c #9F9F9F",
"2	c #FCFCFC",
"3	c #D0D0D0",
"4	c #BEBEBE",
"5	c #C5C5C5",
"6	c #FEFEFE",
"7	c #9B9B9B",
"8	c #7C7C7C",
"9	c #E0E0E0",
"0	c #767676",
"a	c #F8F8F8",
"b	c #EFEFEF",
"c	c #DCDCDC",
"d	c #B3B3B3",
"e	c #585858",
"f	c #A5A5A5",
"g	c #FAFAFA",
"h	c #F7F7F7",
"i	c #C4C4C4",
"j	c #7E7E7E",
"k	c #E9E9E9",
"l	c #EDEDED",
"m	c #ECECEC",
"n	c #161616",
"o	c #F4F4F4",
"p	c #E7E7E7",
"q	c #8B8B8B",
" ....+@#....... ",
".....$%&........",
".....*%%...=-;..",
".....>%,...,%@..",
".....')!..~%{]..",
"......^/..(%_...",
"......:<..[};...",
"....../!..|1....",
"....../_.:}.....",
"....../23&(..[%4",
"......5622789{%>",
".....0a{22%6bcd.",
"e[_f_a%{ghij....",
"k6{2|lkamfn.....",
"@opq............",
" .............. "};
