/* XPM */
static char * frog24_xpm[] = {
"24 24 97 2",
"  	c None",
". 	c #000000",
"+ 	c #2E2E2E",
"@ 	c #727272",
"# 	c #7A7A7A",
"$ 	c #474747",
"% 	c #8C8C8C",
"& 	c #ECECEC",
"* 	c #F2F2F2",
"= 	c #B4B4B4",
"- 	c #D5D5D5",
"; 	c #FFFFFF",
"> 	c #F6F6F6",
", 	c #E0E0E0",
"' 	c #585858",
") 	c #848484",
"! 	c #626262",
"~ 	c #222222",
"{ 	c #D6D6D6",
"] 	c #F7F7F7",
"^ 	c #D0D0D0",
"/ 	c #FBFBFB",
"( 	c #D1D1D1",
"_ 	c #5A5A5A",
": 	c #B9B9B9",
"< 	c #F4F4F4",
"[ 	c #B0B0B0",
"} 	c #F9F9F9",
"| 	c #828282",
"1 	c #666666",
"2 	c #D8D8D8",
"3 	c #DADADA",
"4 	c #FEFEFE",
"5 	c #EAEAEA",
"6 	c #707070",
"7 	c #E9E9E9",
"8 	c #A0A0A0",
"9 	c #EEEEEE",
"0 	c #BFBFBF",
"a 	c #424242",
"b 	c #DCDCDC",
"c 	c #898989",
"d 	c #F3F3F3",
"e 	c #757575",
"f 	c #C2C2C2",
"g 	c #A4A4A4",
"h 	c #969696",
"i 	c #FDFDFD",
"j 	c #F5F5F5",
"k 	c #6A6A6A",
"l 	c #C8C8C8",
"m 	c #BCBCBC",
"n 	c #BABABA",
"o 	c #717171",
"p 	c #F8F8F8",
"q 	c #5F5F5F",
"r 	c #6C6C6C",
"s 	c #B5B5B5",
"t 	c #454545",
"u 	c #EDEDED",
"v 	c #CECECE",
"w 	c #0D0D0D",
"x 	c #777777",
"y 	c #DBDBDB",
"z 	c #FAFAFA",
"A 	c #B1B1B1",
"B 	c #949494",
"C 	c #ADADAD",
"D 	c #EFEFEF",
"E 	c #9C9C9C",
"F 	c #D2D2D2",
"G 	c #FCFCFC",
"H 	c #D7D7D7",
"I 	c #E5E5E5",
"J 	c #B2B2B2",
"K 	c #3D3D3D",
"L 	c #ABABAB",
"M 	c #BDBDBD",
"N 	c #6E6E6E",
"O 	c #404040",
"P 	c #2A2A2A",
"Q 	c #B8B8B8",
"R 	c #C9C9C9",
"S 	c #AAAAAA",
"T 	c #797979",
"U 	c #CFCFCF",
"V 	c #C4C4C4",
"W 	c #B7B7B7",
"X 	c #F1F1F1",
"Y 	c #E7E7E7",
"Z 	c #838383",
"` 	c #E2E2E2",
" .	c #D3D3D3",
"..	c #B3B3B3",
"+.	c #9E9E9E",
"@.	c #C1C1C1",
"#.	c #9F9F9F",
"    . . . . . . + @ # $ . . . . . . . . . .     ",
"  . . . . . . . % & * = . . . . . . . . . . .   ",
". . . . . . . . - ; ; > . . . . . . . . . . . . ",
". . . . . . . . , ; ; ; . . . . . ' ) ! ~ . . . ",
". . . . . . . . { ; ; ] . . . . ! ^ / ( _ . . . ",
". . . . . . . . : ; ; < . . . . [ / ; } | . . . ",
". . . . . . . . 1 & ; 2 . . . ' 3 ; 4 5 6 . . . ",
". . . . . . . . . 7 ; 8 . . . 6 9 4 } 0 a . . . ",
". . . . . . . . . b ; c . . . # d ; ( e . . . . ",
". . . . . . . . . f ; g . . . h i j k . . . . . ",
". . . . . . . . . c ; = . . . l 4 m . . . . . . ",
". . . . . . . . . c ; 0 . . . } * k . . . . . . ",
". . . . . . . . . c ; 3 . . : / n . . . . . . . ",
". . . . . . . . . c 4 9 # o > p q . . . r m s t ",
". . . . . . . . . c ; i u 5 i v w . . x y ; z A ",
". . . . . . . . . B ; 4 4 4 i C + ! ( D 4 ; > E ",
". . . . . . . . . F ; G / G G 5 H I ; ; ; 7 J K ",
". . . . . . . . L z G G / G / ; i 4 d M c N O . ",
"P Q b R S T % U z ; ; / z } p , V % . . . . . . ",
"W 9 / d & X ] ; ; 4 ; G p p Y Z . . . . . . . . ",
"` i 4 4 4 4 p  ...{ D p u J o w . . . . . . . . ",
": X i } - +.. . . . . . . . . . . . . . . . . . ",
"  n @.#._ . . . . . . . . . . . . . . . . . .   ",
"    . . . . . . . . . . . . . . . . . . . .     "};
