/* XPM */
static char * frog48_xpm[] = {
"48 48 65 1",
" 	c None",
".	c #000000",
"+	c #A2A2A2",
"@	c #E6E6E6",
"#	c #ECECEC",
"$	c #FFFFFF",
"%	c #7C7C7C",
"&	c #E4E4E4",
"*	c #CACACA",
"=	c #BEBEBE",
"-	c #DCDCDC",
";	c #8B8B8B",
">	c #FEFEFE",
",	c #F7F7F7",
"'	c #EAEAEA",
")	c #C5C5C5",
"!	c #BABABA",
"~	c #F9F9F9",
"{	c #F6F6F6",
"]	c #FAFAFA",
"^	c #F0F0F0",
"/	c #FDFDFD",
"(	c #F4F4F4",
"_	c #E9E9E9",
":	c #FCFCFC",
"<	c #FBFBFB",
"[	c #E8E8E8",
"}	c #979797",
"|	c #A9A9A9",
"1	c #C6C6C6",
"2	c #969696",
"3	c #EBEBEB",
"4	c #D2D2D2",
"5	c #EFEFEF",
"6	c #E7E7E7",
"7	c #F1F1F1",
"8	c #D3D3D3",
"9	c #E3E3E3",
"0	c #F8F8F8",
"a	c #EEEEEE",
"b	c #CECECE",
"c	c #F5F5F5",
"d	c #B4B4B4",
"e	c #E5E5E5",
"f	c #F3F3F3",
"g	c #A8A8A8",
"h	c #DFDFDF",
"i	c #D6D6D6",
"j	c #D8D8D8",
"k	c #E2E2E2",
"l	c #DDDDDD",
"m	c #A7A7A7",
"n	c #848484",
"o	c #C7C7C7",
"p	c #BDBDBD",
"q	c #D9D9D9",
"r	c #BFBFBF",
"s	c #C4C4C4",
"t	c #C3C3C3",
"u	c #878787",
"v	c #F2F2F2",
"w	c #C1C1C1",
"x	c #E0E0E0",
"y	c #DBDBDB",
"z	c #EDEDED",
"  ............................................  ",
" .............................................. ",
"..................+@@#+.........................",
".................+$$$$$%........................",
".................&$$$$$*........................",
".................$$$$$$$........................",
".................$$$$$$$........................",
".................$$$$$$$........................",
".................$$$$$$$...........=$$-;........",
".................>$$$$$,..........+$$$$').......",
".................!$$$$$~.........%@$$$${).......",
".................%$$$$${.........*$$$$$$$.......",
"..................]$$$$^.........#$$//$(_.......",
"..................!$$$$!........%,$$//$]*.......",
"..................%>$$$+........!,$$~~${%.......",
"...................~$$$%........+$$:$$(!........",
"...................*$$$%........!$$:$$(%........",
"...................+$$$%........+$$$<_;.........",
"...................%$$$%........*<]<[;..........",
"....................$$$}........$]]~+...........",
"....................$$$|.......+://1............",
"....................$$$2.......3$~/.............",
"....................$$$4.......5$<%.............",
"....................$$$6......!7>8..............",
"....................$$$9......<0,%..............",
"....................$$$a.....b<0c...............",
"....................$::3.....$>>d...............",
"....................$$$<%...e$,f.........gh$id..",
"....................$$$/#++h]$<,........+j$$$a!.",
"....................$$$$$h#>/]0k.......+#c$$$$$.",
"...................%$$$$$$$>>/&d......+:<$$$$$*.",
"...................+$$$$$$$>>>l1.....*7:~$$$$$+.",
"...................*$$$$$$$>:<c]!mno$$$$$$$$$p..",
"..................%{$$$$$$$$$$$$$$$$$$$$$$qqr...",
"..................!($$$$$$$$$$$$$$$$$$$$$!......",
".................%$$<$$$$$$$$$$$$</$$$s%........",
"................+$$$$$$$$$$$$$$:,77t%...........",
"..............u^f$$$$$$$$$$$$$$:vww.............",
"..|ee$a*!+%+!*$$$$$$$$$$$$$$$$c3+...............",
"..@$$]~~]<~<$$$$$$///$$/$$$$>,x+................",
".i#$$<<~]0~:$$$$$$///$$]]]<f5i!.................",
".i$$$$$$$$$$$#i*+%+*h7{/f]@@+...................",
".*a$$$$$$7y=%...................................",
".%7$$$$$$y......................................",
"...kz$f@|.......................................",
"................................................",
" .............................................. ",
"  ............................................  "};
