/* XPM */
static char * frog32_xpm[] = {
"32 32 71 1",
" 	c None",
".	c #000000",
"+	c #686868",
"@	c #C5C5C5",
"#	c #FFFFFF",
"$	c #BEBEBE",
"%	c #DCDCDC",
"&	c #8B8B8B",
"*	c #E6E6E6",
"=	c #B9B9B9",
"-	c #CACACA",
";	c #D8D8D8",
">	c #868686",
",	c #ACACAC",
"'	c #9C9C9C",
")	c #FDFDFD",
"!	c #DBDBDB",
"~	c #CFCFCF",
"{	c #8F8F8F",
"]	c #C7C7C7",
"^	c #F9F9F9",
"/	c #B3B3B3",
"(	c #DEDEDE",
"_	c #FCFCFC",
":	c #D0D0D0",
"<	c #E9E9E9",
"[	c #D1D1D1",
"}	c #5D5D5D",
"|	c #FAFAFA",
"1	c #F7F7F7",
"2	c #878787",
"3	c #9A9A9A",
"4	c #FBFBFB",
"5	c #B4B4B4",
"6	c #969696",
"7	c #C8C8C8",
"8	c #F8F8F8",
"9	c #A6A6A6",
"0	c #F1F1F1",
"a	c #AFAFAF",
"b	c #C0C0C0",
"c	c #F5F5F5",
"d	c #FEFEFE",
"e	c #F4F4F4",
"f	c #D4D4D4",
"g	c #ECECEC",
"h	c #A8A8A8",
"i	c #DADADA",
"j	c #BBBBBB",
"k	c #EFEFEF",
"l	c #A3A3A3",
"m	c #848484",
"n	c #D9D9D9",
"o	c #AAAAAA",
"p	c #DDDDDD",
"q	c #B2B2B2",
"r	c #E0E0E0",
"s	c #F6F6F6",
"t	c #F3F3F3",
"u	c #C1C1C1",
"v	c #939393",
"w	c #A9A9A9",
"x	c #E5E5E5",
"y	c #EEEEEE",
"z	c #E4E4E4",
"A	c #EAEAEA",
"B	c #DFDFDF",
"C	c #323232",
"D	c #D6D6D6",
"E	c #838383",
"F	c #E7E7E7",
"  ............................  ",
" ..........+@#@+............... ",
"...........@###@................",
"...........#####................",
"...........#####................",
"...........#####.......$#%&.....",
"...........*###*......=###@.....",
"...........-###;......#####.....",
"...........>*##,.....'##)#!.....",
"............~##{.....]##^#/.....",
"............=##......(#_#:......",
"............{##......<##[&......",
"............}##+.....#|1&.......",
".............##2....34)5........",
".............##6....7#8.........",
".............##9....0)5.........",
".............##a...b8c..........",
".............#_=...#d5..........",
".............##e$.f#g......h##5.",
".............#####)ci.....jk###.",
".............#####d_5...l[1####.",
"............2##484_4k.m]######9.",
"............<##___dd########no..",
"...........p#1#||)4^##|##q......",
".........2r####||_1stpuv........",
".wx#y~pzA######484187...........",
".B#|^|84####))#|18s7C...........",
".########DwEjFy^t7..............",
".<####[w........................",
"..~#*w..........................",
" .............................. ",
"  ............................  "};
